<svg xmlns="http://www.w3.org/2000/svg" class="img-fluid" id="outputsvg" style="transform: matrix(1, 0, 0, 1, 0, 0); transform-origin: 50% 50%; cursor: move; max-height: none; transition: transform 200ms ease-in-out 0s;" width="550" height="550" viewBox="1500 2500 5000 5000"><g id="l7Cna2hOWzfPH7y4bjpDq5m" fill="rgb(225,199,171)" style="transform: none;"><g style="transform: none;"><path id="psNXY0HOV" d="M2069 5979 c-290 -24 -492 -128 -535 -275 -19 -68 -14 -134 15 -192 20 -38 114 -132 133 -132 5 0 30 14 54 31 61 42 157 84 245 109 81 22 279 29 337 11 86 -26 132 -78 132 -148 0 -77 -38 -101 -298 -192 -92 -32 -178 -63 -190 -70 -12 -6 -39 -10 -60 -7 -20 3 -29 3 -19 0 14 -4 3 -13 -40 -33 -32 -16 -88 -51 -125 -79 -60 -46 -73 -52 -120 -54 -50 -1 -51 -2 -10 -5 48 -5 52 -17 22 -56 -62 -79 -97 -220 -86 -354 17 -230 163 -403 406 -482 240 -79 634 -64 823 31 176 88 213 286 80 426 l-40 42 -64 -30 c-113 -53 -208 -72 -359 -74 -157 -1 -209 13 -260 70 -53 61 -33 122 56 163 25 12 116 45 201 72 169 55 272 99 365 155 42 26 72 37 99 37 21 0 39 3 39 8 0 5 7 6 15 3 8 -4 15 -1 15 6 0 6 17 32 39 58 21 26 41 60 45 75 6 26 5 28 -15 22 -19 -6 -21 -5 -14 11 51 119 70 280 45 393 -47 215 -219 368 -484 431 -69 17 -303 43 -341 38 -5 0 -53 -4 -106 -9z"/><path id="plofy2BXA" d="M4421 5949 c-61 -12 -112 -40 -137 -77 -19 -28 -40 -134 -30 -150 2 -4 7 -74 11 -157 4 -82 10 -190 14 -240 4 -49 7 -117 7 -150 -1 -53 -3 -60 -21 -61 -48 -2 -55 -5 -55 -18 0 -9 12 -16 28 -18 26 -3 27 -5 26 -60 -1 -41 2 -58 12 -58 10 0 31 -53 27 -70 -1 -3 2 -69 7 -145 9 -134 13 -200 26 -435 7 -140 14 -158 71 -197 85 -57 123 -67 278 -67 156 -1 214 12 293 66 74 51 109 133 257 603 37 116 74 217 83 226 16 14 19 14 35 -1 10 -10 48 -118 87 -251 81 -269 167 -532 186 -571 24 -46 129 -72 289 -73 111 0 141 4 203 24 87 28 135 69 151 126 10 36 41 305 71 610 7 66 17 129 22 139 6 11 10 65 10 120 0 95 6 202 28 441 5 55 12 156 16 225 3 69 8 128 11 133 36 59 -194 117 -351 88 -131 -24 -182 -73 -191 -183 -6 -74 -27 -542 -24 -554 1 -5 1 -28 0 -51 -1 -37 -4 -43 -27 -49 -20 -5 -24 -11 -20 -28 3 -11 6 -47 6 -78 0 -45 3 -58 15 -58 13 0 15 -18 13 -120 -2 -66 -7 -121 -12 -123 -9 -2 -53 133 -63 196 -5 33 -3 39 16 44 26 7 25 0 0 76 -29 86 -36 97 -64 97 -26 0 -25 -3 -90 220 -42 143 -55 159 -144 183 -125 34 -261 28 -349 -14 -53 -26 -64 -46 -123 -234 -40 -128 -50 -151 -71 -159 -18 -6 -28 -23 -41 -67 -13 -45 -22 -59 -36 -59 -15 0 -20 9 -23 41 -2 27 1 43 9 46 25 10 13 32 -21 38 l-33 7 -7 81 c-3 45 -6 174 -6 287 1 220 -8 411 -20 430 -18 29 -250 49 -349 29z m481 -1011 c3 -7 -6 -46 -18 -88 -13 -41 -28 -94 -34 -118 -20 -78 -35 -46 -38 83 -3 91 -1 120 10 126 20 13 76 11 80 -3z"/><path id="p15qjixaCS" d="M3282 5191 c-6 -4 -18 -23 -27 -44 -8 -20 -22 -37 -30 -37 -8 0 -15 -7 -15 -15 0 -8 -4 -15 -10 -15 -6 0 -10 -27 -10 -60 0 -44 4 -60 14 -60 7 0 22 -12 32 -27 36 -50 61 -71 100 -82 24 -7 152 -11 326 -11 l286 0 17 45 c12 31 26 48 47 57 29 13 29 13 26 93 -3 78 -4 80 -28 80 -15 0 -38 13 -56 32 -17 17 -50 36 -72 43 -46 12 -580 13 -600 1z"/></g></g></svg>
