<svg viewBox="0 0 96 96" xmlns="http://www.w3.org/2000/svg" xmlns:xlink="http://www.w3.org/1999/xlink" id="Icons_CoveredPlate_M" overflow="hidden"><g id="Icons"><path d="M86 68 86 66C85.9748 47.7858 73.0474 32.143 55.164 28.687 55.175 28.521 55.188 28.355 55.188 28.187 55.188 24.2172 51.9698 20.999 48 20.999 44.0302 20.999 40.812 24.2172 40.812 28.187 40.812 28.354 40.829 28.519 40.84 28.687 22.9553 32.1417 10.026 47.7847 10 66L10 68 7 68 7 72C7.00659 74.2064 8.7936 75.9934 11 76L85 76C87.2064 75.9934 88.9934 74.2064 89 72L89 68ZM42.812 28.188C42.812 25.3227 45.1347 23 48 23 50.8653 23 53.188 25.3227 53.188 28.188 53.188 28.247 53.173 28.303 53.171 28.361 49.7382 27.879 46.2548 27.879 42.822 28.361 42.82 28.3 42.812 28.247 42.812 28.188ZM12 66C12 46.1177 28.1177 30 48 30 67.8822 30 84 46.1177 84 66L84 68 12 68ZM87 72C87 73.1046 86.1046 74 85 74L11 74C9.89543 74 9 73.1046 9 72L9 70 87 70Z" stroke="#E45F74" stroke-width="2" fill="#E45F74"/></g></svg>