<svg viewBox="0 0 96 96" xmlns="http://www.w3.org/2000/svg" xmlns:xlink="http://www.w3.org/1999/xlink" id="Icons_TableSetting_M" overflow="hidden"><g id="Icons"><path d="M87.782 30.576C84.021 30.576 81.711 36.676 81.711 41.051 81.711 44.563 83.098 46.293 84.306 47.151 84.5647 47.3137 84.7893 47.5253 84.967 47.774 85.1909 48.1197 85.2981 48.5279 85.273 48.939L84.691 68.839C84.7957 70.4806 86.1551 71.7599 87.8 71.765 87.869 71.765 87.938 71.765 88.009 71.758 89.5993 71.64 90.8499 70.3511 90.92 68.758L90.336 48.944C90.3116 48.5313 90.4199 48.1217 90.645 47.775 90.8395 47.5093 91.085 47.285 91.367 47.115 92.521 46.267 93.898 44.525 93.898 41.035 93.842 36.67 91.486 30.576 87.782 30.576ZM90.36 45.63C89.9001 45.9158 89.5011 46.2896 89.186 46.73 88.7264 47.3948 88.499 48.1927 88.539 49L89.124 68.728C89.0791 69.3885 88.5535 69.9146 87.893 69.96 87.1985 70.0016 86.5888 69.5021 86.493 68.813L87.072 49C87.1124 48.1961 86.8879 47.4011 86.433 46.737 86.1309 46.3109 85.7492 45.9472 85.309 45.666 84.133 44.824 83.509 43.23 83.509 41.055 83.509 36.839 85.704 32.381 87.779 32.381 89.822 32.381 92.041 36.846 92.097 41.055 92.1 43.208 91.479 44.805 90.36 45.63Z" stroke="#E45F74" fill="#E45F74"/><path d="M14.241 32.651 13.954 31.2 3.694 31.2 3.394 32.634C2.78716 35.5642 2.44214 38.5426 2.363 41.534 2.363 45.064 3.823 46.847 5.048 47.734L5.095 47.768 5.143 47.798 5.343 47.925C5.49 48.016 5.659 48.119 5.832 48.233 6.16606 48.4613 6.36001 48.8446 6.346 49.249L5.867 68.735C5.8243 70.3858 7.1279 71.7586 8.77868 71.8013 10.4295 71.844 11.8023 70.5404 11.845 68.8896 11.8463 68.8381 11.8463 68.7865 11.845 68.735L11.326 49.2C11.3118 48.7958 11.5053 48.4125 11.839 48.184 12.003 48.075 12.164 47.976 12.305 47.884L12.53 47.744 12.579 47.712 12.627 47.677C14.409 46.377 15.313 44.31 15.313 41.535L15.313 41.5 15.313 41.458C15.1741 38.4998 14.8158 35.5561 14.241 32.651ZM11.566 46.23C11.372 46.354 11.115 46.508 10.848 46.684 9.99448 47.2546 9.49522 48.2248 9.527 49.251L10.045 68.778C10.064 69.4349 9.54694 69.9829 8.88999 70.002 8.23305 70.021 7.68505 69.5039 7.666 68.847 7.66533 68.824 7.66533 68.801 7.666 68.778L8.152 49.278C8.18169 48.2523 7.68145 47.2836 6.828 46.714 6.558 46.537 6.299 46.381 6.102 46.258 4.936 45.417 4.164 43.958 4.164 41.57 4.24165 38.687 4.57631 35.8166 5.164 32.993L6.022 32.993 6.022 42.428C6.0522 42.7025 6.2992 42.9005 6.57369 42.8703 6.80653 42.8447 6.99038 42.6608 7.016 42.428L7.016 33 8.332 33 8.332 42.435C8.35958 42.7098 8.60468 42.9101 8.87944 42.8826 9.11608 42.8588 9.30325 42.6716 9.327 42.435L9.327 33 10.627 33 10.627 42.435 10.627 42.435C10.627 42.7111 10.8509 42.935 11.127 42.935 11.4031 42.935 11.627 42.7111 11.627 42.435L11.627 33 12.485 33C13.042 35.8177 13.389 38.6729 13.523 41.542 13.513 43.927 12.741 45.373 11.566 46.23Z" stroke="#E45F74" fill="#E45F74"/><path d="M80.73 27.7C80.7428 26.2768 79.5994 25.1128 78.1762 25.1 78.1608 25.0999 78.1454 25.0999 78.13 25.1 77.514 25.122 74.415 25.664 73.923 34.124L73.1 48.51C73.1 49.632 74.386 50.27 75.417 50.673L74.6 68.567C74.7162 70.351 76.1942 71.7403 77.982 71.746 78.052 71.746 78.123 71.746 78.193 71.739 79.9275 71.6202 81.2951 70.216 81.368 68.479L80.727 49.834ZM78.086 69.942C77.244 70.0014 76.5033 69.39 76.402 68.552L77.274 49.446 76.536 49.172C75.9539 49.0031 75.4037 48.7388 74.908 48.39L75.722 34.229C76.054 28.52 77.662 26.999 78.187 26.899 78.6088 26.9099 78.9419 27.2606 78.9311 27.6824 78.9311 27.6836 78.931 27.6848 78.931 27.686L78.931 49.85 79.574 68.45C79.5256 69.2516 78.8875 69.8915 78.086 69.942Z" stroke="#E45F74" fill="#E45F74"/><path d="M44 20C29.0883 20 17 32.0883 17 47 17 61.9117 29.0883 74 44 74 58.9117 74 71 61.9117 71 47 71 32.0883 58.9117 20 44 20ZM44 72C30.1929 72 19 60.8071 19 47 19 33.1929 30.1929 22 44 22 57.8071 22 69 33.1929 69 47 68.9846 60.8007 57.8007 71.9846 44 72Z" stroke="#E45F74" fill="#E45F74"/><path d="M44 28C33.5066 28 25 36.5066 25 47 25 57.4934 33.5066 66 44 66 54.4934 66 63 57.4934 63 47 62.9884 36.5114 54.4886 28.0116 44 28ZM44 64C34.6112 64 27 56.3888 27 47 27 37.6112 34.6112 30 44 30 53.3888 30 61 37.6112 61 47 60.9895 56.3845 53.3845 63.9895 44 64Z" stroke="#E45F74" fill="#E45F74"/></g></svg>