<svg viewBox="0 0 96 96" xmlns="http://www.w3.org/2000/svg" xmlns:xlink="http://www.w3.org/1999/xlink" id="Icons_Home1_M" overflow="hidden"><g id="Icons"><path d="M39.406 47.191C35.76 48.1736 33.1691 51.4027 33 55.175 33 64.2 46.8 74.86 47.384 75.31L47.991 75.775 48.599 75.31C49.187 74.86 62.983 64.201 62.983 55.175 62.8155 51.4036 60.2273 48.174 56.583 47.189 54.983 46.809 51.166 46.56 47.994 51.503 44.822 46.564 41 46.813 39.406 47.191ZM56.117 49.134C58.865 49.8984 60.8214 52.3273 60.983 55.175 60.983 62.225 50.635 71.088 47.991 73.237 45.348 71.088 35 62.225 35 55.175 35.1629 52.3275 37.1207 49.8997 39.869 49.137 40.2427 49.0472 40.6256 49.0012 41.01 49 43.329 49 45.46 50.727 47.099 53.976L47.983 55.73C47.9846 55.7347 47.9898 55.7372 47.9945 55.7355 47.9971 55.7346 47.9991 55.7326 48 55.73L48.884 53.976C50.79 50.2 53.355 48.479 56.117 49.134Z" stroke="#E45F74" stroke-width="2" fill="#E45F74"/><path d="M18 51.764 18 83.976 78 84 78 51.722 82.969 56.422 89.433 49.959 48 10.6 6.567 49.958 13.056 56.446ZM76 82 20 81.977 20 49.87 48 23.354 76 49.831ZM13.093 53.656 9.433 50 48 13.356 86.567 50 82.93 53.632 48 20.6Z" stroke="#E45F74" stroke-width="2" fill="#E45F74"/></g></svg>