<svg xmlns="http://www.w3.org/2000/svg" class="img-fluid" id="outputsvg" style="transform: matrix(1, 0, 0, 1, 0, 0); transform-origin: 50% 50%; cursor: move; max-height: none; transition: transform 200ms ease-in-out 0s;" width="784" height="940" viewBox="0 0 7840 9400"><g id="l7fzxperr0SXR7ck9Of4LDB" fill="rgb(196,173,143)" style="transform: none;"><g style="transform: none;"><path id="p1Hg7TXEXQ" d="M3103 9370 c-91 -19 -123 -65 -123 -176 0 -63 2 -68 38 -104 60 -61 90 -65 395 -63 l267 3 0 -23 c0 -170 -92 -510 -195 -722 -160 -327 -511 -769 -700 -880 -87 -52 -122 -55 -517 -43 -373 10 -1027 4 -1178 -11 -47 -5 -116 -15 -155 -21 -128 -23 -154 -78 -164 -350 l-6 -175 -290 -6 c-366 -8 -414 -19 -455 -106 -25 -54 -25 -72 1 -127 26 -55 54 -81 108 -101 39 -13 451 -15 3790 -15 2580 0 3758 3 3784 11 107 29 170 160 117 246 -45 75 -141 93 -488 93 l-249 0 -6 168 c-9 208 -35 314 -85 341 -98 52 -702 73 -1463 51 -347 -10 -370 -8 -470 46 -82 44 -275 243 -411 424 -238 317 -354 547 -433 859 -25 101 -58 319 -49 333 3 4 128 7 278 5 l272 -2 60 30 c77 40 97 75 91 164 -5 71 -24 104 -78 136 -33 20 -53 20 -839 22 -443 0 -824 -3 -847 -7z m1556 -1884 c43 -61 81 -176 81 -242 0 -71 -32 -168 -78 -240 -102 -157 -297 -256 -447 -226 -73 15 -147 49 -208 95 -67 52 -97 50 -189 -12 -121 -81 -220 -105 -327 -77 -190 49 -338 200 -376 385 -20 95 4 212 61 302 30 48 430 465 612 639 l137 130 351 -353 c193 -195 365 -375 383 -401z"/><path id="pUdeMV9Ju" d="M1695 6289 c-495 -9 -623 -18 -681 -47 -61 -31 -130 -98 -156 -150 -23 -47 -23 -50 -23 -407 0 -324 2 -363 17 -392 27 -49 76 -90 153 -129 64 -31 81 -35 200 -44 72 -5 258 -10 415 -11 157 -1 277 -3 267 -6 -9 -2 -15 -9 -12 -14 9 -13 92 -11 118 3 12 6 97 37 189 69 189 66 260 99 282 131 21 30 22 148 1 188 -38 74 -157 104 -355 91 -161 -11 -278 -49 -407 -131 -21 -14 -25 -12 -64 25 -74 72 -96 137 -73 215 52 177 364 292 726 269 369 -24 616 -191 678 -457 17 -73 8 -193 -20 -267 -12 -33 -24 -79 -27 -102 l-5 -43 176 0 176 0 16 39 c13 33 21 40 52 45 65 10 475 7 517 -5 22 -6 54 -26 72 -45 l32 -34 178 2 178 3 0 100 c0 55 -7 214 -14 352 -15 281 -13 295 43 337 48 36 103 50 196 50 105 0 196 -19 205 -42 4 -9 10 -189 14 -400 4 -210 11 -385 15 -389 4 -4 51 -9 104 -11 71 -3 101 0 113 10 8 7 33 69 54 138 52 174 72 216 109 239 72 45 201 56 302 26 101 -29 104 -33 158 -219 27 -91 53 -170 57 -177 8 -14 188 -24 207 -11 10 7 14 57 17 198 7 299 24 503 46 545 45 90 244 123 398 67 l53 -20 -6 -112 c-8 -134 -23 -328 -36 -453 -6 -50 -10 -123 -10 -162 0 -64 2 -71 20 -71 11 0 20 6 20 14 0 10 36 15 163 20 183 8 230 16 301 52 76 38 127 84 150 133 20 44 21 61 21 386 0 264 -3 349 -14 380 -17 47 -99 137 -157 171 -60 35 -168 43 -784 54 -618 11 -3714 10 -4365 -1z"/><path id="pNiuY4EI9" d="M2792 4974 c-26 -5 -67 -23 -92 -39 -77 -49 -199 -101 -361 -153 -263 -85 -289 -103 -289 -203 0 -51 4 -63 30 -93 52 -59 101 -71 285 -70 172 0 244 12 359 59 l61 25 29 -32 c89 -103 85 -213 -12 -300 -72 -65 -156 -98 -312 -123 -175 -28 -378 -14 -530 36 -233 76 -382 245 -405 459 -11 106 26 241 86 319 11 13 19 39 19 57 l0 34 -177 -6 c-262 -8 -416 -21 -457 -38 -43 -18 -137 -105 -169 -155 -21 -35 -22 -45 -25 -371 -4 -401 -2 -419 67 -483 27 -25 72 -57 101 -72 95 -48 156 -55 512 -55 l327 0 -15 -27 c-19 -37 -20 -335 -1 -351 31 -25 54 -22 107 14 61 42 270 116 314 112 25 -2 33 -9 43 -38 14 -42 16 -152 3 -238 -8 -59 -13 -68 -72 -131 -35 -37 -74 -89 -87 -116 -23 -49 -23 -49 -12 -264 14 -263 37 -514 57 -599 15 -67 43 -128 80 -178 29 -37 29 -39 4 -71 -24 -31 -17 -42 49 -80 25 -15 47 -28 49 -29 2 -1 -2 -21 -9 -44 -11 -35 -23 -48 -78 -84 -88 -58 -142 -114 -182 -189 -28 -53 -34 -74 -37 -148 -7 -136 30 -240 119 -335 99 -103 241 -134 513 -111 126 10 189 52 272 177 24 35 26 45 16 61 -11 17 -7 29 23 83 49 88 70 188 56 267 -11 64 -39 129 -71 164 -10 11 -21 31 -25 43 -8 27 -48 46 -115 57 -68 10 -108 24 -114 41 -8 22 -4 27 62 69 l58 38 -4 176 -4 177 87 43 c48 24 112 54 141 67 l54 24 224 -64 c192 -55 232 -69 268 -99 24 -19 143 -85 265 -146 164 -82 249 -132 328 -191 58 -43 128 -92 155 -107 48 -27 50 -30 50 -72 0 -50 61 -181 111 -239 20 -22 29 -44 29 -66 l0 -33 -61 -6 c-132 -12 -264 -107 -325 -235 -38 -78 -45 -210 -17 -294 19 -56 19 -58 1 -85 -26 -40 -23 -57 17 -92 71 -62 229 -126 340 -137 133 -14 282 36 371 124 130 128 170 325 128 632 -20 151 -48 254 -86 312 l-30 48 -4 192 c-2 106 -5 209 -7 227 -2 29 3 37 23 47 14 7 68 33 120 58 349 167 655 630 844 1276 24 83 66 201 93 261 l48 108 327 1 c253 0 343 3 399 15 117 25 221 91 262 168 22 41 22 50 22 382 0 250 -4 352 -14 384 -15 52 -113 156 -174 185 -42 19 -207 35 -369 36 -85 0 -97 2 -91 16 4 12 0 15 -18 12 -27 -3 -20 40 -74 -463 -14 -132 -30 -258 -36 -280 -26 -93 -149 -150 -324 -150 -130 1 -238 31 -259 73 -19 39 -105 302 -186 571 -45 152 -77 241 -89 253 -25 23 -66 23 -91 1 -11 -11 -46 -106 -85 -228 -97 -308 -153 -466 -186 -523 -33 -58 -89 -100 -169 -128 -73 -25 -253 -25 -320 0 -70 26 -139 77 -150 111 -9 28 -25 286 -36 575 -3 69 -10 145 -16 169 l-11 43 -161 -6 c-89 -4 -171 -12 -183 -18 -11 -6 -29 -30 -38 -54 l-17 -44 -256 0 c-153 0 -273 4 -296 11 -37 10 -61 30 -99 80 -17 23 -18 23 -223 24 -113 0 -227 -5 -252 -11z m142 -1351 c15 -65 32 -138 37 -163 12 -58 39 -175 49 -218 10 -40 18 -41 -160 15 -170 53 -188 64 -194 115 -8 70 -25 228 -32 301 l-6 67 140 0 140 0 26 -117z m731 95 c3 -13 18 -88 35 -168 76 -365 190 -700 331 -978 92 -180 134 -236 293 -388 l136 -130 0 -51 c0 -28 -3 -64 -6 -81 l-6 -30 -47 32 c-25 18 -111 68 -191 111 -256 137 -360 199 -365 216 -10 31 -42 50 -96 56 -44 5 -62 13 -96 44 -67 62 -508 269 -571 269 -15 0 -67 -13 -115 -29 l-87 -30 0 93 c0 59 6 110 16 140 15 44 19 47 43 42 14 -3 55 -13 91 -21 36 -8 104 -14 152 -15 83 0 89 1 122 30 42 38 60 87 53 149 -4 40 -57 353 -100 594 l-14 78 26 13 c14 8 46 20 70 27 24 7 48 21 55 31 9 16 26 18 138 18 124 0 128 -1 133 -22z"/><path id="pHfq4zNx6" d="M4792 4972 c-9 -7 -12 -45 -10 -158 l3 -149 42 -3 c42 -3 42 -3 53 40 6 24 22 80 35 124 42 137 36 154 -49 154 -33 0 -67 -4 -74 -8z"/><path id="py45zzONi" d="M5744 4965 c-11 -27 4 -127 29 -210 l25 -80 38 0 39 0 3 153 3 152 -66 0 c-50 0 -67 -4 -71 -15z"/></g></g><g id="l7Cna2hOWzfPH7y4bjpDq5m" fill="rgb(225,199,171)" style="transform: none;"><g style="transform: none;"><path id="psNXY0HOV" d="M2069 5979 c-290 -24 -492 -128 -535 -275 -19 -68 -14 -134 15 -192 20 -38 114 -132 133 -132 5 0 30 14 54 31 61 42 157 84 245 109 81 22 279 29 337 11 86 -26 132 -78 132 -148 0 -77 -38 -101 -298 -192 -92 -32 -178 -63 -190 -70 -12 -6 -39 -10 -60 -7 -20 3 -29 3 -19 0 14 -4 3 -13 -40 -33 -32 -16 -88 -51 -125 -79 -60 -46 -73 -52 -120 -54 -50 -1 -51 -2 -10 -5 48 -5 52 -17 22 -56 -62 -79 -97 -220 -86 -354 17 -230 163 -403 406 -482 240 -79 634 -64 823 31 176 88 213 286 80 426 l-40 42 -64 -30 c-113 -53 -208 -72 -359 -74 -157 -1 -209 13 -260 70 -53 61 -33 122 56 163 25 12 116 45 201 72 169 55 272 99 365 155 42 26 72 37 99 37 21 0 39 3 39 8 0 5 7 6 15 3 8 -4 15 -1 15 6 0 6 17 32 39 58 21 26 41 60 45 75 6 26 5 28 -15 22 -19 -6 -21 -5 -14 11 51 119 70 280 45 393 -47 215 -219 368 -484 431 -69 17 -303 43 -341 38 -5 0 -53 -4 -106 -9z"/><path id="plofy2BXA" d="M4421 5949 c-61 -12 -112 -40 -137 -77 -19 -28 -40 -134 -30 -150 2 -4 7 -74 11 -157 4 -82 10 -190 14 -240 4 -49 7 -117 7 -150 -1 -53 -3 -60 -21 -61 -48 -2 -55 -5 -55 -18 0 -9 12 -16 28 -18 26 -3 27 -5 26 -60 -1 -41 2 -58 12 -58 10 0 31 -53 27 -70 -1 -3 2 -69 7 -145 9 -134 13 -200 26 -435 7 -140 14 -158 71 -197 85 -57 123 -67 278 -67 156 -1 214 12 293 66 74 51 109 133 257 603 37 116 74 217 83 226 16 14 19 14 35 -1 10 -10 48 -118 87 -251 81 -269 167 -532 186 -571 24 -46 129 -72 289 -73 111 0 141 4 203 24 87 28 135 69 151 126 10 36 41 305 71 610 7 66 17 129 22 139 6 11 10 65 10 120 0 95 6 202 28 441 5 55 12 156 16 225 3 69 8 128 11 133 36 59 -194 117 -351 88 -131 -24 -182 -73 -191 -183 -6 -74 -27 -542 -24 -554 1 -5 1 -28 0 -51 -1 -37 -4 -43 -27 -49 -20 -5 -24 -11 -20 -28 3 -11 6 -47 6 -78 0 -45 3 -58 15 -58 13 0 15 -18 13 -120 -2 -66 -7 -121 -12 -123 -9 -2 -53 133 -63 196 -5 33 -3 39 16 44 26 7 25 0 0 76 -29 86 -36 97 -64 97 -26 0 -25 -3 -90 220 -42 143 -55 159 -144 183 -125 34 -261 28 -349 -14 -53 -26 -64 -46 -123 -234 -40 -128 -50 -151 -71 -159 -18 -6 -28 -23 -41 -67 -13 -45 -22 -59 -36 -59 -15 0 -20 9 -23 41 -2 27 1 43 9 46 25 10 13 32 -21 38 l-33 7 -7 81 c-3 45 -6 174 -6 287 1 220 -8 411 -20 430 -18 29 -250 49 -349 29z m481 -1011 c3 -7 -6 -46 -18 -88 -13 -41 -28 -94 -34 -118 -20 -78 -35 -46 -38 83 -3 91 -1 120 10 126 20 13 76 11 80 -3z"/><path id="p15qjixaCS" d="M3282 5191 c-6 -4 -18 -23 -27 -44 -8 -20 -22 -37 -30 -37 -8 0 -15 -7 -15 -15 0 -8 -4 -15 -10 -15 -6 0 -10 -27 -10 -60 0 -44 4 -60 14 -60 7 0 22 -12 32 -27 36 -50 61 -71 100 -82 24 -7 152 -11 326 -11 l286 0 17 45 c12 31 26 48 47 57 29 13 29 13 26 93 -3 78 -4 80 -28 80 -15 0 -38 13 -56 32 -17 17 -50 36 -72 43 -46 12 -580 13 -600 1z"/><path id="p15FwTA61F" d="M3430 873 c-18 -32 -74 -121 -125 -198 -131 -198 -164 -277 -172 -415 -6 -103 15 -190 58 -232 25 -26 33 -28 107 -28 l80 0 35 39 c19 21 40 47 46 57 9 13 14 15 17 7 3 -7 11 -13 17 -14 7 0 28 -20 47 -44 l35 -44 86 0 c99 -1 135 12 175 64 59 78 55 253 -11 430 -42 111 -82 178 -154 257 -44 48 -164 152 -198 171 -7 4 -24 -15 -43 -50z"/></g></g></svg>
